<?xml version="1.0" encoding="utf-8"?>
<!DOCTYPE svg PUBLIC "-//W3C//DTD SVG 1.1//EN" "http://www.w3.org/Graphics/SVG/1.1/DTD/svg11.dtd">
<svg version="1.1" id="Layer_1" xmlns="http://www.w3.org/2000/svg" xmlns:xlink="http://www.w3.org/1999/xlink" x="0px" y="0px"
	 viewBox="0 0 24 24" enable-background="new 0 0 24 24" xml:space="preserve">
<path fill="#ffb200" d="M12,0C7.4,0,3.6,3.8,3.6,8.4c0,2.9,1.4,5.4,3.6,6.9V18c0,0.7,0.5,1.2,1.2,1.2h7.2c0.7,0,1.2-0.5,1.2-1.2
	v-2.7c2.2-1.5,3.6-4,3.6-6.9C20.4,3.8,16.6,0,12,0 M8.4,22.8c0,0.7,0.5,1.2,1.2,1.2h4.8c0.7,0,1.2-0.5,1.2-1.2v-1.2H8.4V22.8z"/>
</svg>