<?xml version="1.0" standalone="no"?>
<!DOCTYPE svg PUBLIC "-//W3C//DTD SVG 20010904//EN"
 "http://www.w3.org/TR/2001/REC-SVG-20010904/DTD/svg10.dtd">
<svg version="1.0" xmlns="http://www.w3.org/2000/svg"
 width="260.000000pt" height="260.000000pt" viewBox="0 0 260.000000 260.000000"
 preserveAspectRatio="xMidYMid meet">
<metadata>
Created by potrace 1.11, written by Peter Selinger 2001-2013
</metadata>
<g transform="translate(0.000000,260.000000) scale(0.100000,-0.100000)"
fill="#000000" stroke="none">
<path d="M1131 1889 c-347 -347 -631 -633 -631 -636 0 -9 327 -333 335 -333 4
0 291 284 638 630 l630 630 -19 22 c-29 32 -315 318 -319 318 -2 0 -287 -284
-634 -631z"/>
<path d="M1126 1049 l-629 -629 19 -21 c10 -12 86 -89 168 -171 127 -128 150
-147 164 -136 18 16 1209 1207 1236 1237 19 21 19 21 -146 186 -91 91 -170
165 -174 165 -5 -1 -292 -284 -638 -631z"/>
</g>
</svg>
