<?xml version="1.0" encoding="utf-8"?>
<!DOCTYPE svg PUBLIC "-//W3C//DTD SVG 1.1//EN" "http://www.w3.org/Graphics/SVG/1.1/DTD/svg11.dtd">
<svg version="1.1" id="Layer_1" xmlns="http://www.w3.org/2000/svg" xmlns:xlink="http://www.w3.org/1999/xlink" x="0px" y="0px"
	 viewBox="0 0 24 24" enable-background="new 0 0 24 24" xml:space="preserve">
<path fill="none" stroke="#FFB200" stroke-miterlimit="10" d="M20.4,12.1L20.4,12.1c0-0.1,0-0.1,0-0.2c0-3.9-2.6-7.1-6-7.1
	c-2.1,0-4,1.4-5,3.4c-0.3-0.1-0.6-0.1-1-0.1c-2.1,0-3.9,1.7-4.5,4c-0.1,0-0.1,0-0.2,0c-1.7,0-2.9,1.6-2.9,3.6s1.4,3.6,2.9,3.6h16.7
	c1.7,0,2.9-1.6,2.9-3.6S21.9,12.1,20.4,12.1z"/>
<polygon fill="none" stroke="#FFB200" stroke-miterlimit="10" points="14.7,16 12,16.8 9.4,16 9.4,10.8 12,11.3 14.7,10.8 "/>
</svg>
