<?xml version="1.0" encoding="utf-8"?>
<!DOCTYPE svg PUBLIC "-//W3C//DTD SVG 1.1//EN" "http://www.w3.org/Graphics/SVG/1.1/DTD/svg11.dtd">
<svg version="1.1" id="Layer_1" xmlns="http://www.w3.org/2000/svg" xmlns:xlink="http://www.w3.org/1999/xlink" x="0px" y="0px"
	 viewBox="0 0 24 24" enable-background="new 0 0 24 24" xml:space="preserve">
<g>
	<rect x="1.3" y="13" fill="none" width="3" height="3"/>
	<path fill="#FFB200" d="M4.3,7v5h-3h-1v1v3v1h1h3h1v-1v-3v-1V7H4.3z M4.3,16h-3v-3h3V16z"/>
</g>
<polygon fill="#FFB200" points="9.9,12 6.9,12 6.9,7 5.9,7 5.9,12 5.9,13 5.9,17 6.9,17 6.9,13 9.9,13 9.9,17 10.9,17 10.9,13 
	10.9,12 "/>
<rect x="11.5" y="12" fill="#FFB200" width="1" height="5"/>
<polygon fill="#FFB200" points="18.1,13 18.1,12 14.1,12 13.1,12 13.1,13 13.1,14 13.1,15 14.1,15 17.1,15 17.1,16 13.1,16 13.1,17 
	17.1,17 18.1,17 18.1,16 18.1,15 18.1,14 17.1,14 14.1,14 14.1,13 "/>
<rect x="11.5" y="10.4" fill="#FFB200" width="1" height="1"/>
<polygon fill="#FFB200" points="22.7,8 19.7,8 18.7,8 18.7,9 18.7,10 19.7,10 19.7,9 22.7,9 22.7,12 19.7,12 18.7,12 18.7,13 
	18.7,16 18.7,17 19.7,17 22.7,17 23.7,17 23.7,16 23.7,15 22.7,15 22.7,16 19.7,16 19.7,13 22.7,13 23.7,13 23.7,12 23.7,9 23.7,8 
	"/>
</svg>
