<?xml version="1.0" encoding="utf-8"?>
<!DOCTYPE svg PUBLIC "-//W3C//DTD SVG 1.1//EN" "http://www.w3.org/Graphics/SVG/1.1/DTD/svg11.dtd">
<svg version="1.1" id="Layer_1" xmlns="http://www.w3.org/2000/svg" xmlns:xlink="http://www.w3.org/1999/xlink" x="0px" y="0px"
	 viewBox="0 0 24 24" enable-background="new 0 0 24 24" xml:space="preserve">
<g>
	<polygon fill="none" points="12.7,20.2 11.9,19.9 11.2,20.2 11.9,20.5 	"/>
	<path fill="none" d="M13.4,18L13.4,18c0-0.1,0.7-1.5,0.3-2.9c-0.5,0.7-1.3,1.5-2.4,1.7l-1.2,0.3l0.5-1.1c0.2-0.4,0.6-1.6,0.3-2.5
		c-0.3,0.2-0.7,0.5-1,1c-0.4,0.8-0.4,1.8,0.1,3l0.1,0.4l1.7,0.7L13.4,18z"/>
	<path fill="none" d="M8.9,14c0.7-1.4,2.2-1.8,2.2-1.9l0.4-0.1l0.2,0.4c0.5,0.8,0.5,1.8,0.4,2.6c0.7-0.6,1-1.4,1-1.4l0.4-1l0.6,0.9
		c0.9,1.2,0.9,2.4,0.8,3.4c0.5-0.5,0.9-1.1,1.1-1.9c0.6-2.3-0.5-5.2-1.7-6.9c-1.1-1.4-1.9-2.7-2.4-3.6c-0.4,1.4-1.3,2.2-2.1,3.1
		c-0.8,0.8-1.6,1.6-2.2,3c-0.9,2.1-0.1,4,0.9,5.2C8.5,15.1,8.6,14.5,8.9,14z"/>
	<polygon fill="none" points="13.7,19.3 14.4,19.5 16.7,18.7 16.5,18.2 	"/>
	<polygon fill="none" points="7.4,18.2 7.2,18.7 9.4,19.5 10.2,19.3 	"/>
	<polygon fill="none" points="7.2,21.7 7.4,22.2 10.2,21.1 9.4,20.9 	"/>
	<polygon fill="none" points="16.5,22.2 16.7,21.7 14.4,20.9 13.7,21.1 	"/>
	<path fill="#ffb200" d="M18.3,19.4l-1-2.8l-0.6,0.2c0.3-0.5,0.5-0.9,0.7-1.5c0.7-2.7-0.5-6-1.9-7.9c-2.1-2.8-3.2-5-3.2-5L11,0.2
		l0,2.5c0,2-0.9,2.9-2,4c-0.8,0.8-1.8,1.8-2.5,3.3c-1.3,3,0.2,5.6,1.4,7l-1.3-0.5l-1,2.8l2.1,0.8L5.6,21l1,2.8l5.3-2l5.3,2l1-2.8
		l-2.1-0.8L18.3,19.4z M14.4,19.5l-0.8-0.3l2.9-1.1l0.2,0.5L14.4,19.5z M11.9,19.9l0.8,0.3l-0.8,0.3l-0.8-0.3L11.9,19.9z M7.6,10.6
		c0.6-1.3,1.4-2.2,2.2-3c0.9-0.8,1.7-1.7,2.1-3.1c0.6,0.9,1.4,2.2,2.4,3.6c1.2,1.7,2.3,4.6,1.7,6.9c-0.2,0.7-0.6,1.4-1.1,1.9
		c0.1-1,0.1-2.2-0.8-3.4l-0.6-0.9l-0.4,1c0,0-0.3,0.8-1,1.4c0.1-0.8,0.1-1.8-0.4-2.6L11.6,12l-0.4,0.1c-0.1,0-1.5,0.4-2.2,1.9
		c-0.3,0.5-0.4,1.2-0.4,1.8C7.6,14.6,6.7,12.7,7.6,10.6z M10.1,17.6c-0.5-1.2-0.5-2.2-0.1-3c0.3-0.5,0.7-0.8,1-1
		c0.2,0.9-0.1,2.1-0.3,2.5l-0.5,1.1l1.2-0.3c1.1-0.3,1.9-1.1,2.4-1.7c0.5,1.4-0.2,2.8-0.3,2.9l0,0l-1.5,0.6l-1.7-0.7L10.1,17.6z
		 M7.2,18.7l0.2-0.5l2.9,1.1l-0.8,0.3L7.2,18.7z M7.4,22.2l-0.2-0.5l2.3-0.9l0.8,0.3L7.4,22.2z M16.7,21.7l-0.2,0.5l-2.9-1.1
		l0.8-0.3L16.7,21.7z"/>
</g>
</svg>
