<?xml version="1.0" encoding="utf-8"?>
<!DOCTYPE svg PUBLIC "-//W3C//DTD SVG 1.1//EN" "http://www.w3.org/Graphics/SVG/1.1/DTD/svg11.dtd">
<svg version="1.1" id="Layer_1" xmlns="http://www.w3.org/2000/svg" xmlns:xlink="http://www.w3.org/1999/xlink" x="0px" y="0px"
	 viewBox="0 0 24 24" enable-background="new 0 0 24 24" xml:space="preserve">
<path fill="none" stroke="#ffb200" stroke-miterlimit="10" d="M22.1,6.4H16C15.8,5.9,15.5,5,14.8,5c-0.9,0-2.7,0-2.9,0
	c-0.2,0-2,0-2.9,0c-0.6,0-1,0.9-1.2,1.4H4c0,0,0,0,0,0C4,6,3.7,5.7,3.3,5.7H2.7C2.3,5.7,2,6,2,6.4c0,0,0,0,0,0h0
	c-0.7,0-1.2,0.5-1.2,1.2V18c0,0.7,0.5,1.2,1.2,1.2h20.1c0.7,0,1.2-0.5,1.2-1.2V7.6C23.3,6.9,22.8,6.4,22.1,6.4z"/>
<circle fill="none" stroke="#ffb200" stroke-miterlimit="10" cx="12" cy="12.5" r="4"/>
</svg>
