<?xml version="1.0" encoding="utf-8"?>
<!DOCTYPE svg PUBLIC "-//W3C//DTD SVG 1.1//EN" "http://www.w3.org/Graphics/SVG/1.1/DTD/svg11.dtd">
<svg version="1.1" id="Layer_1" xmlns="http://www.w3.org/2000/svg" xmlns:xlink="http://www.w3.org/1999/xlink" x="0px" y="0px"
	 viewBox="0 0 24 24" enable-background="new 0 0 24 24" xml:space="preserve">
<g>
	<polygon fill="none" points="21.8,10 16,9.9 15.5,13.1 21.3,13.1 	"/>
	<polygon fill="none" points="8.8,5.7 8.2,8.8 15,8.8 15.6,5.7 	"/>
	<polygon fill="none" points="16.2,8.8 22,8.8 22.6,5.6 16.7,5.7 	"/>
	<polygon fill="none" points="14.3,13.1 14.8,9.9 8,9.9 7.5,13.2 	"/>
	<polygon fill="none" points="6.9,9.9 2.7,9.9 3.4,13.2 6.3,13.2 	"/>
	<polygon fill="none" points="7.1,8.8 7.6,5.7 1.9,5.8 2.5,8.8 	"/>
	<path fill="#ffb200" d="M23.7,5.6L23.7,5.6l0-1.1L1.6,4.6L1.4,3.3L0.2,3.6L3.5,19L3.9,19l2.3,0c0,0.1-0.1,0.2-0.1,0.3
		c0,0.8,0.6,1.4,1.4,1.4S9,20,9,19.2c0-0.1,0-0.2-0.1-0.3l6.7,0c0,0.1-0.1,0.2-0.1,0.3c0,0.8,0.6,1.4,1.4,1.4c0.8,0,1.4-0.6,1.4-1.4
		c0-0.1,0-0.2-0.1-0.3l2.7,0l0-1.1l-16.6,0l-0.7-3.5l18.6-0.1l0-0.4l0,0L23.7,5.6z M14.8,9.9l-0.5,3.2l-6.8,0L8,9.9L14.8,9.9z
		 M8.2,8.8l0.5-3.1l6.8-0.1L15,8.8L8.2,8.8z M16,9.9l5.8,0l-0.5,3.1l-5.8,0L16,9.9z M22,8.8l-5.8,0l0.5-3.1l5.8,0L22,8.8z M7.6,5.7
		L7.1,8.8l-4.6,0l-0.6-3L7.6,5.7z M2.7,9.9l4.1,0l-0.6,3.2l-2.9,0L2.7,9.9z"/>
</g>
</svg>
