<?xml version="1.0" encoding="utf-8"?>
<!DOCTYPE svg PUBLIC "-//W3C//DTD SVG 1.1//EN" "http://www.w3.org/Graphics/SVG/1.1/DTD/svg11.dtd">
<svg version="1.1" id="Layer_1" xmlns="http://www.w3.org/2000/svg" xmlns:xlink="http://www.w3.org/1999/xlink" x="0px" y="0px"
	 viewBox="0 0 24 24" enable-background="new 0 0 24 24" xml:space="preserve">
<g>
	<path fill="none" stroke="#ffb200" stroke-miterlimit="10" d="M16.8,10l3.4-5.8c-2.1-2.1-4.9-3.5-8.1-3.5c-0.2,0-0.4,0-0.6,0
		L16.8,10z"/>
	<path fill="none" stroke="#ffb200" stroke-miterlimit="10" d="M12.7,6.9L9.3,1.1C6.1,1.8,3.4,4,2,6.9H12.7z"/>
	<path fill="none" stroke="#ffb200" stroke-miterlimit="10" d="M16,15.2h6.8c0.3-1,0.5-2.1,0.5-3.2c0-2.3-0.7-4.4-1.9-6.2L16,15.2z"
		/>
	<path fill="none" stroke="#ffb200" stroke-miterlimit="10" d="M11.3,17.1l3.4,5.9c3.2-0.8,5.9-3,7.4-5.9H11.3z"/>
	<path fill="none" stroke="#ffb200" stroke-miterlimit="10" d="M1.2,8.8c-0.3,1-0.5,2.1-0.5,3.2c0,2.3,0.7,4.4,1.8,6.1L8,8.8H1.2z"
		/>
	<path fill="none" stroke="#ffb200" stroke-miterlimit="10" d="M7.2,13.9l-3.4,5.9c2.1,2.2,5,3.5,8.2,3.5c0.2,0,0.4,0,0.6,0
		L7.2,13.9z"/>
</g>
</svg>
