<?xml version="1.0" encoding="utf-8"?>
<!DOCTYPE svg PUBLIC "-//W3C//DTD SVG 1.1//EN" "http://www.w3.org/Graphics/SVG/1.1/DTD/svg11.dtd">
<svg version="1.1" id="Layer_1" xmlns="http://www.w3.org/2000/svg" xmlns:xlink="http://www.w3.org/1999/xlink" x="0px" y="0px"
	 viewBox="0 0 24 24" enable-background="new 0 0 24 24" xml:space="preserve">
<path fill="#ffffff" d="M21.6,0H2.4C1.1,0,0,1.1,0,2.4v19.2C0,23,1.1,24,2.4,24h19.2C23,24,24,23,24,21.6V2.4C24,1.1,23,0,21.6,0z
	 M5.6,16.2c0,0.7-0.6,1.3-1.3,1.3S3,16.9,3,16.2V9.9C2.9,9,3.5,8.4,4.3,8.4C5,8.4,5.6,9,5.6,9.7V16.2z M17.4,17.6c0,0.5-0.4,1-1,1
	h-0.8v3.1c0,0.7-0.6,1.3-1.3,1.3S13,22.4,13,21.6v-3.2h-1.8v3.2c0,0.7-0.6,1.3-1.3,1.3c-0.8,0.1-1.4-0.5-1.4-1.3v-3.2h-1
	c-0.5,0-1-0.4-1-1v-9h10.9V17.6z M6.6,7.6c0-1.8,0.8-3.4,2.3-4.4L7.7,1.9c-0.2-0.1-0.2-0.5,0-0.6c0.1-0.1,0.5-0.1,0.6,0l1.3,1.3
	C10.3,2.3,11.2,2,12,2c0.8,0,1.7,0.2,2.4,0.6l1.3-1.3c0.1-0.1,0.5-0.1,0.6,0c0.1,0.2,0.1,0.5,0,0.6l-1.2,1.2c1.3,1,2.3,2.6,2.3,4.4
	H6.6z M21.2,16.2c0,0.7-0.6,1.3-1.3,1.3s-1.3-0.6-1.3-1.3V9.9c0-0.7,0.6-1.3,1.3-1.3s1.3,0.6,1.3,1.3V16.2z"/>
</svg>
