<?xml version="1.0" encoding="utf-8"?>
<!DOCTYPE svg PUBLIC "-//W3C//DTD SVG 1.1//EN" "http://www.w3.org/Graphics/SVG/1.1/DTD/svg11.dtd">
<svg version="1.1" id="Layer_1" xmlns="http://www.w3.org/2000/svg" xmlns:xlink="http://www.w3.org/1999/xlink" x="0px" y="0px"
	 viewBox="0 0 24 24" enable-background="new 0 0 24 24" xml:space="preserve">
<path d="M15,5h-1V4h1 M10,5H9V4h1 M15.5,2.2l1.3-1.3c0.2-0.2,0.2-0.5,0-0.7c-0.2-0.2-0.5-0.2-0.7,0l-1.5,1.5C13.9,1.2,12.9,1,12,1
	c-1,0-1.9,0.2-2.7,0.6L7.8,0.1c-0.2-0.2-0.5-0.2-0.7,0c-0.2,0.2-0.2,0.5,0,0.7l1.3,1.3C7,3.3,6,5,6,7h12C18,5,17,3.3,15.5,2.2
	 M20.5,8C19.7,8,19,8.7,19,9.5v7c0,0.8,0.7,1.5,1.5,1.5s1.5-0.7,1.5-1.5v-7C22,8.7,21.3,8,20.5,8 M3.5,8C2.7,8,2,8.7,2,9.5v7
	C2,17.3,2.7,18,3.5,18S5,17.3,5,16.5v-7C5,8.7,4.3,8,3.5,8 M6,18c0,0.6,0.4,1,1,1h1v3.5C8,23.3,8.7,24,9.5,24s1.5-0.7,1.5-1.5V19h2
	v3.5c0,0.8,0.7,1.5,1.5,1.5s1.5-0.7,1.5-1.5V19h1c0.6,0,1-0.4,1-1V8H6V18z"/>
</svg>