<?xml version="1.0" encoding="utf-8"?>
<!DOCTYPE svg PUBLIC "-//W3C//DTD SVG 1.1//EN" "http://www.w3.org/Graphics/SVG/1.1/DTD/svg11.dtd">
<svg version="1.1" id="Layer_1" xmlns="http://www.w3.org/2000/svg" xmlns:xlink="http://www.w3.org/1999/xlink" x="0px" y="0px"
	 viewBox="0 0 24 24" enable-background="new 0 0 24 24" xml:space="preserve">
<path fill="#ffffff" d="M2.4,0h19.2C22.9,0,24,1.1,24,2.4v19.2c0,1.3-1.1,2.4-2.4,2.4h-6.2C15,23.9,15,23.1,15,22.8v-3.3
	c0-1.1-0.4-1.8-0.8-2.2c2.7-0.3,5.5-1.3,5.5-5.9c0-1.3-0.5-2.4-1.2-3.3C18.5,7.8,19,6.6,18.3,5c0,0-1-0.3-3.3,1.2
	c-0.9-0.3-2-0.4-3-0.4S9.9,5.9,9,6.2C6.7,4.7,5.7,5,5.7,5C5,6.6,5.5,7.8,5.6,8.1C4.8,9,4.3,10.1,4.3,11.4c0,4.6,2.8,5.6,5.5,5.9
	c-0.3,0.3-0.6,0.8-0.8,1.6c-0.7,0.3-2.4,0.8-3.5-1c0,0-0.6-1.2-1.8-1.2c0,0-1.2,0-0.1,0.7c0,0,0.8,0.4,1.4,1.8c0,0,0.7,2.3,4,1.6v2
	c0,0.3,0,1.1-0.4,1.2H2.4C1.1,24,0,22.9,0,21.6V2.4C0,1.1,1.1,0,2.4,0z"/>
</svg>
