<?xml version="1.0" encoding="utf-8"?>
<!-- Generator: Adobe Illustrator 17.1.0, SVG Export Plug-In . SVG Version: 6.00 Build 0)  -->
<!DOCTYPE svg PUBLIC "-//W3C//DTD SVG 1.1//EN" "http://www.w3.org/Graphics/SVG/1.1/DTD/svg11.dtd">
<svg version="1.1" id="Layer_1" xmlns="http://www.w3.org/2000/svg" xmlns:xlink="http://www.w3.org/1999/xlink" x="0px" y="0px"
	 viewBox="0 0 24 24" enable-background="new 0 0 24 24" xml:space="preserve">
<path d="M16,23.2c0-0.5,0-2.2,0-4.3c0-1.4-0.5-2.4-1.1-2.9c3.5-0.4,7.1-1.7,7.1-7.6c0-1.7-0.6-3.1-1.6-4.2c0.2-0.4,0.7-2-0.2-4.1
	c0,0-1.3-0.4-4.3,1.6c-1.2-0.3-2.6-0.5-3.9-0.5S9.3,1.4,8.1,1.7c-3-2-4.3-1.6-4.3-1.6c-0.7,2.1-0.1,3.8,0,4.2
	c-1,1.1-1.6,2.5-1.6,4.2c0,5.9,3.6,7.3,7.1,7.6c-0.4,0.4-0.8,1.1-1,2.1c-0.9,0.4-3.2,1.1-4.5-1.3c0,0-0.8-1.5-2.4-1.6
	c0,0-1.5,0-0.1,0.9c0,0,1,0.5,1.7,2.3c0,0,0.9,3,5.2,2.1c0,1.3,0,2.3,0,2.6c0,0.1,0,0.1,0,0.2c1.3,0.4,2.6,0.6,4,0.6
	c1.3,0,2.6-0.2,3.9-0.6C16.1,23.4,16,23.3,16,23.2z"/>
</svg>
