<?xml version="1.0" encoding="utf-8"?>
<!-- Generator: Adobe Illustrator 17.1.0, SVG Export Plug-In . SVG Version: 6.00 Build 0)  -->
<!DOCTYPE svg PUBLIC "-//W3C//DTD SVG 1.1//EN" "http://www.w3.org/Graphics/SVG/1.1/DTD/svg11.dtd">
<svg version="1.1" id="Layer_1" xmlns="http://www.w3.org/2000/svg" xmlns:xlink="http://www.w3.org/1999/xlink" x="0px" y="0px"
	 viewBox="0 0 24 24" enable-background="new 0 0 24 24" xml:space="preserve">
<g>
	<path d="M24,24v-9.6c0-3.2-2.7-5.9-5.9-5.9c-1.5,0-3.3,1-4.2,2.4v-2h-5v14.9h5v-8.8c0-1.4,1.1-2.5,2.5-2.5c1.4,0,2.5,1.1,2.5,2.5
		V24H24z"/>
	<rect x="0.5" y="8.9" width="5" height="15.1"/>
	<path d="M3.1,0C1.4,0,0,1.4,0,3.1c0,1.7,1.4,3.1,3.1,3.1c1.7,0,3.1-1.4,3.1-3.1C6.1,1.4,4.7,0,3.1,0z"/>
</g>
</svg>
