<?xml version="1.0" encoding="utf-8"?>
<!DOCTYPE svg PUBLIC "-//W3C//DTD SVG 1.1//EN" "http://www.w3.org/Graphics/SVG/1.1/DTD/svg11.dtd">
<svg version="1.1" id="Layer_1" xmlns="http://www.w3.org/2000/svg" xmlns:xlink="http://www.w3.org/1999/xlink" x="0px" y="0px"
	 viewBox="0 0 24 24" enable-background="new 0 0 24 24" xml:space="preserve">
<path fill="#ffffff" d="M20.4,20.4h-3.6V14c0-1-0.8-1.8-1.8-1.8S13.2,13,13.2,14v6.3H9.6V9.6h3.6V11c0.6-1,1.9-1.7,3-1.7
	c2.3,0,4.2,1.9,4.2,4.2 M5.4,7.6c-1.2,0-2.2-1-2.2-2.2c0-1.2,1-2.2,2.2-2.2l0,0c1.2,0,2.2,1,2.2,2.2C7.6,6.6,6.6,7.6,5.4,7.6
	C5.4,7.6,5.4,7.6,5.4,7.6 M7.2,20.4H3.6V9.6h3.6 M21.6,0H2.4C1.1,0,0,1.1,0,2.4v19.2C0,22.9,1.1,24,2.4,24h19.2
	c1.3,0,2.4-1.1,2.4-2.4V2.4C24,1.1,22.9,0,21.6,0z"/>
</svg>
