<?xml version="1.0" encoding="utf-8"?>
<!DOCTYPE svg PUBLIC "-//W3C//DTD SVG 1.1//EN" "http://www.w3.org/Graphics/SVG/1.1/DTD/svg11.dtd">
<svg version="1.1" id="Layer_1" xmlns="http://www.w3.org/2000/svg" xmlns:xlink="http://www.w3.org/1999/xlink" x="0px" y="0px"
	 viewBox="0 0 24 24" enable-background="new 0 0 24 24" xml:space="preserve">
<g>
	<polygon fill="#ffffff" points="5.4,7.1 5.4,8.6 12,12.8 18.6,8.6 18.6,7.1 12,11.1 	"/>
	<path fill="#ffffff" d="M21.6,0H2.4C1.1,0,0,1.1,0,2.4v19.2C0,22.9,1.1,24,2.4,24h19.2c1.3,0,2.4-1.1,2.4-2.4V2.4
		C24,1.1,22.9,0,21.6,0z M20.2,16.9c0,1-0.7,1.7-1.7,1.7H5.4c-1,0-1.7-0.7-1.7-1.7V7.1c0-1,0.7-1.7,1.7-1.7h13.3
		c1,0,1.7,0.7,1.7,1.7v9.8H20.2z"/>
</g>
</svg>
